<mxfile host="app.diagrams.net" modified="2022-10-19T01:53:19.888Z" agent="5.0 (Macintosh; Intel Mac OS X 10_15_7) AppleWebKit/537.36 (KHTML, like Gecko) Chrome/106.0.0.0 Safari/537.36" etag="CE47Kk4VoNmNZ6ypiv4C" version="20.4.1" type="github">
  <diagram id="C5RBs43oDa-KdzZeNtuy" name="Page-1">
    <mxGraphModel dx="1234" dy="794" grid="1" gridSize="10" guides="1" tooltips="1" connect="1" arrows="1" fold="1" page="1" pageScale="1" pageWidth="827" pageHeight="1169" math="0" shadow="0">
      <root>
        <mxCell id="WIyWlLk6GJQsqaUBKTNV-0" />
        <mxCell id="WIyWlLk6GJQsqaUBKTNV-1" parent="WIyWlLk6GJQsqaUBKTNV-0" />
        <mxCell id="nLl6k8Ohztmbap9x90bs-2" value="" style="edgeStyle=orthogonalEdgeStyle;rounded=0;orthogonalLoop=1;jettySize=auto;html=1;" edge="1" parent="WIyWlLk6GJQsqaUBKTNV-1" source="nLl6k8Ohztmbap9x90bs-0" target="nLl6k8Ohztmbap9x90bs-1">
          <mxGeometry relative="1" as="geometry" />
        </mxCell>
        <mxCell id="nLl6k8Ohztmbap9x90bs-0" value="开始下单" style="rounded=0;whiteSpace=wrap;html=1;fillColor=#dae8fc;strokeColor=#6c8ebf;" vertex="1" parent="WIyWlLk6GJQsqaUBKTNV-1">
          <mxGeometry x="130" y="100" width="120" height="60" as="geometry" />
        </mxCell>
        <mxCell id="nLl6k8Ohztmbap9x90bs-4" value="是" style="edgeStyle=orthogonalEdgeStyle;rounded=0;orthogonalLoop=1;jettySize=auto;html=1;entryX=0;entryY=0.5;entryDx=0;entryDy=0;" edge="1" parent="WIyWlLk6GJQsqaUBKTNV-1" source="nLl6k8Ohztmbap9x90bs-1" target="nLl6k8Ohztmbap9x90bs-14">
          <mxGeometry relative="1" as="geometry">
            <mxPoint x="190" y="380" as="targetPoint" />
            <Array as="points">
              <mxPoint x="190" y="550" />
            </Array>
          </mxGeometry>
        </mxCell>
        <mxCell id="nLl6k8Ohztmbap9x90bs-10" value="" style="edgeStyle=orthogonalEdgeStyle;rounded=0;orthogonalLoop=1;jettySize=auto;html=1;" edge="1" parent="WIyWlLk6GJQsqaUBKTNV-1" source="nLl6k8Ohztmbap9x90bs-1" target="nLl6k8Ohztmbap9x90bs-9">
          <mxGeometry relative="1" as="geometry" />
        </mxCell>
        <mxCell id="nLl6k8Ohztmbap9x90bs-11" value="否" style="edgeLabel;html=1;align=center;verticalAlign=middle;resizable=0;points=[];" vertex="1" connectable="0" parent="nLl6k8Ohztmbap9x90bs-10">
          <mxGeometry x="-0.15" y="-2" relative="1" as="geometry">
            <mxPoint y="1" as="offset" />
          </mxGeometry>
        </mxCell>
        <mxCell id="nLl6k8Ohztmbap9x90bs-1" value="判断当前商户渠道是否可用" style="rhombus;whiteSpace=wrap;html=1;fontFamily=Helvetica;fontSize=12;align=center;strokeColor=#d79b00;fillColor=#ffe6cc;" vertex="1" parent="WIyWlLk6GJQsqaUBKTNV-1">
          <mxGeometry x="130" y="240" width="120" height="60" as="geometry" />
        </mxCell>
        <mxCell id="nLl6k8Ohztmbap9x90bs-13" value="" style="edgeStyle=orthogonalEdgeStyle;rounded=0;orthogonalLoop=1;jettySize=auto;html=1;" edge="1" parent="WIyWlLk6GJQsqaUBKTNV-1" source="nLl6k8Ohztmbap9x90bs-9" target="nLl6k8Ohztmbap9x90bs-12">
          <mxGeometry relative="1" as="geometry" />
        </mxCell>
        <mxCell id="nLl6k8Ohztmbap9x90bs-9" value="获取商户预先配置的其他渠道" style="whiteSpace=wrap;html=1;fillColor=#ffe6cc;strokeColor=#d79b00;" vertex="1" parent="WIyWlLk6GJQsqaUBKTNV-1">
          <mxGeometry x="390" y="240" width="120" height="60" as="geometry" />
        </mxCell>
        <mxCell id="nLl6k8Ohztmbap9x90bs-15" value="" style="edgeStyle=orthogonalEdgeStyle;rounded=0;orthogonalLoop=1;jettySize=auto;html=1;" edge="1" parent="WIyWlLk6GJQsqaUBKTNV-1" source="nLl6k8Ohztmbap9x90bs-12" target="nLl6k8Ohztmbap9x90bs-14">
          <mxGeometry relative="1" as="geometry" />
        </mxCell>
        <mxCell id="nLl6k8Ohztmbap9x90bs-12" value="获取优先级较高的渠道" style="whiteSpace=wrap;html=1;fillColor=#ffe6cc;strokeColor=#d79b00;" vertex="1" parent="WIyWlLk6GJQsqaUBKTNV-1">
          <mxGeometry x="390" y="380" width="120" height="60" as="geometry" />
        </mxCell>
        <mxCell id="nLl6k8Ohztmbap9x90bs-19" value="" style="edgeStyle=orthogonalEdgeStyle;rounded=0;orthogonalLoop=1;jettySize=auto;html=1;" edge="1" parent="WIyWlLk6GJQsqaUBKTNV-1" source="nLl6k8Ohztmbap9x90bs-14" target="nLl6k8Ohztmbap9x90bs-18">
          <mxGeometry relative="1" as="geometry" />
        </mxCell>
        <mxCell id="nLl6k8Ohztmbap9x90bs-14" value="调用渠道方接口" style="whiteSpace=wrap;html=1;fillColor=#ffe6cc;strokeColor=#d79b00;" vertex="1" parent="WIyWlLk6GJQsqaUBKTNV-1">
          <mxGeometry x="390" y="520" width="120" height="60" as="geometry" />
        </mxCell>
        <mxCell id="nLl6k8Ohztmbap9x90bs-21" value="" style="edgeStyle=orthogonalEdgeStyle;rounded=0;orthogonalLoop=1;jettySize=auto;html=1;" edge="1" parent="WIyWlLk6GJQsqaUBKTNV-1" source="nLl6k8Ohztmbap9x90bs-18" target="nLl6k8Ohztmbap9x90bs-20">
          <mxGeometry relative="1" as="geometry" />
        </mxCell>
        <mxCell id="nLl6k8Ohztmbap9x90bs-18" value="判断当前渠道调用次数" style="whiteSpace=wrap;html=1;fillColor=#ffe6cc;strokeColor=#d79b00;" vertex="1" parent="WIyWlLk6GJQsqaUBKTNV-1">
          <mxGeometry x="390" y="660" width="120" height="60" as="geometry" />
        </mxCell>
        <mxCell id="nLl6k8Ohztmbap9x90bs-20" value="" style="whiteSpace=wrap;html=1;fillColor=#ffe6cc;strokeColor=#d79b00;" vertex="1" parent="WIyWlLk6GJQsqaUBKTNV-1">
          <mxGeometry x="390" y="800" width="120" height="60" as="geometry" />
        </mxCell>
      </root>
    </mxGraphModel>
  </diagram>
</mxfile>
